<svg xmlns="http://www.w3.org/2000/svg" viewBox="0 0 512 512"><path d="M486.881 503.983H25.119c-9.446 0-17.102-7.656-17.102-17.102V25.119c0-9.446 7.656-17.102 17.102-17.102h461.762c9.446 0 17.102 7.656 17.102 17.102v461.762c0 9.446-7.656 17.102-17.102 17.102z" fill="#ecedef"/><path d="M503.983 25.119c0-9.445-7.656-17.102-17.102-17.102H25.119c-9.446 0-17.102 7.658-17.102 17.102v68.409h495.967V25.119z" fill="#68727e"/><path d="M33.67 486.881V25.119c0-9.445 7.656-17.102 17.102-17.102H25.119c-9.446 0-17.102 7.658-17.102 17.102v461.762c0 9.445 7.656 17.102 17.102 17.102h25.653c-9.445 0-17.102-7.657-17.102-17.102z" fill="#d9dcdf"/><path d="M50.772 8.017H25.119c-9.446 0-17.102 7.658-17.102 17.102v68.409H33.67V25.119c0-9.445 7.657-17.102 17.102-17.102z" fill="#55606e"/><circle cx="67.875" cy="50.772" r="17.102" fill="#ffc44f"/><circle cx="136.284" cy="50.772" r="17.102" fill="#c4df64"/><circle cx="204.693" cy="50.772" r="17.102" fill="#ff8c78"/><path d="M136.284 358.614h247.983v34.205H136.284zm0 68.409h247.983v34.205H136.284z" fill="#b3b9bf"/><path d="M324.409 324.409H187.591V221.795c0-9.446 7.656-17.102 17.102-17.102h102.614c9.446 0 17.102 7.656 17.102 17.102v102.614z" fill="#509fe8"/><path d="M230.347 204.693h-25.653c-9.446 0-17.102 7.658-17.102 17.102v102.614h25.653V221.795c-.001-9.444 7.656-17.102 17.102-17.102z" fill="#4d8ccf"/><circle cx="256" cy="256" r="17.102" fill="#68727e"/><path d="M136.284 375.716h247.983v17.102H136.284zm0 68.409h247.983v17.102H136.284z" fill="#8e959f"/><path d="M511.489 20.065C509.128 8.518 498.662 0 486.881 0h-76.96c-4.428 0-8.017 3.588-8.017 8.017s3.588 8.017 8.017 8.017h76.96c4.953 0 9.086 4.127 9.086 9.086v60.392H16.033V25.119c0-4.953 4.133-9.086 9.086-9.086h342.046c4.428 0 8.017-3.588 8.017-8.017S371.593 0 367.165 0H25.119C11.429 0 0 11.423 0 25.119v324.944c0 4.428 3.589 8.017 8.017 8.017s8.017-3.588 8.017-8.017V101.545h479.933v385.336c0 5.01-4.076 9.086-9.086 9.086H25.119c-5.01 0-9.086-4.076-9.086-9.086v-94.063a8.017 8.017 0 1 0-16.033 0v94.063C0 500.732 11.268 512 25.119 512h461.762C500.732 512 512 500.732 512 486.881V25.119c0-1.697-.171-3.398-.511-5.054z"/><path d="M42.756 50.772c0 13.851 11.268 25.119 25.119 25.119s25.119-11.268 25.119-25.119-11.269-25.119-25.119-25.119-25.119 11.269-25.119 25.119zm34.204 0c0 5.01-4.076 9.086-9.086 9.086s-9.086-4.076-9.086-9.086 4.076-9.086 9.086-9.086 9.086 4.077 9.086 9.086zm34.205 0c0 13.851 11.268 25.119 25.119 25.119 13.851 0 25.119-11.268 25.119-25.119s-11.268-25.119-25.119-25.119c-13.851 0-25.119 11.269-25.119 25.119zm34.205 0c0 5.01-4.076 9.086-9.086 9.086-5.01 0-9.086-4.076-9.086-9.086s4.076-9.086 9.086-9.086c5.01.001 9.086 4.077 9.086 9.086zm34.204 0c0 13.851 11.268 25.119 25.119 25.119s25.119-11.268 25.119-25.119-11.268-25.119-25.119-25.119-25.119 11.269-25.119 25.119zm34.205 0c0 5.01-4.076 9.086-9.086 9.086s-9.086-4.076-9.086-9.086 4.076-9.086 9.086-9.086 9.086 4.077 9.086 9.086zm-85.512 307.842v34.205a8.017 8.017 0 0 0 8.017 8.017h247.983a8.016 8.016 0 0 0 8.017-8.017v-34.205a8.016 8.016 0 0 0-8.017-8.017H136.284a8.017 8.017 0 0 0-8.017 8.017zm16.034 8.016h231.95v18.171h-231.95V366.63zm-16.034 94.598a8.017 8.017 0 0 0 8.017 8.017h247.983a8.016 8.016 0 0 0 8.017-8.017v-34.205a8.016 8.016 0 0 0-8.017-8.017H136.284a8.017 8.017 0 0 0-8.017 8.017v34.205zm16.034-26.188h231.95v18.171h-231.95V435.04zM461.228 58.789c4.428 0 8.017-3.588 8.017-8.017s-3.588-8.017-8.017-8.017h-17.102c-4.428 0-8.017 3.588-8.017 8.017s3.588 8.017 8.017 8.017h17.102zm-179.04-8.017a8.016 8.016 0 0 0 8.017 8.017h128.267c4.428 0 8.017-3.588 8.017-8.017s-3.588-8.017-8.017-8.017H290.205a8.017 8.017 0 0 0-8.017 8.017zm-77.495 145.904c-13.851 0-25.119 11.268-25.119 25.119v102.614a8.017 8.017 0 0 0 8.017 8.017h136.818a8.016 8.016 0 0 0 8.017-8.017V221.795c0-13.851-11.268-25.119-25.119-25.119h-.534v-26.188c0-23.281-18.941-42.221-42.221-42.221H247.45c-23.281 0-42.221 18.941-42.221 42.221v8.551c0 4.428 3.589 8.017 8.017 8.017s8.017-3.588 8.017-8.017v-8.551c0-14.441 11.748-26.188 26.188-26.188h17.102c14.441 0 26.188 11.747 26.188 26.188v26.188h-86.048zm111.699 25.119v94.597H195.608v-94.597c0-5.01 4.076-9.086 9.086-9.086h102.614c5.009.001 9.084 4.077 9.084 9.086z"/><path d="M256 230.881c-13.851 0-25.119 11.268-25.119 25.119 0 11.048 7.172 20.446 17.102 23.8v18.956a8.017 8.017 0 0 0 8.017 8.017 8.016 8.016 0 0 0 8.017-8.017V279.8c9.93-3.354 17.102-12.752 17.102-23.8 0-13.851-11.268-25.119-25.119-25.119zm0 34.205c-5.01 0-9.086-4.076-9.086-9.086 0-5.01 4.076-9.086 9.086-9.086 5.01 0 9.086 4.076 9.086 9.086 0 5.01-4.076 9.086-9.086 9.086z"/></svg>